<svg id="Capa_1" enable-background="new 0 0 512.075 512.075" height="512" viewBox="0 0 512.075 512.075" width="512" xmlns="http://www.w3.org/2000/svg"><g><path d="m328.675 414.437-60 91c-2.999 4.2-7.5 6.601-12.599 6.601s-9.6-2.401-12.599-6.601l-60-91c-4.501-6.899-2.701-16.199 4.199-21h136.802c6.897 4.8 8.697 14.1 4.197 21z" fill="#766e6e"/><path d="m328.675 414.437-60 91c-2.999 4.2-7.5 6.601-12.599 6.601v-118.602h68.401c6.898 4.801 8.698 14.101 4.198 21.001z" fill="#463f3f"/><path d="m247.207 134.62c-33.823-95.171-152.08-147.862-235.093-131.69-7.06 1.392-12.143 7.588-12.114 14.78s5.156 13.345 12.231 14.678c87.437 16.465 127.573 105.688 136.567 150.557 1.436 7.134 7.69 12.056 14.692 12.056.981 0 1.963-.088 2.959-.293l71.646-40.928c7.808-2.769 11.881-11.353 9.112-19.16z" fill="#766e6e"/><path d="m499.961 2.942c-83.027-16.216-201.299 36.533-235.093 131.689-2.769 7.808 1.304 16.392 9.111 19.16l74.604 41.221c7.002 0 13.257-4.922 14.692-12.056 8.995-44.868 49.132-134.091 136.569-150.556 7.075-1.333 12.202-7.485 12.231-14.678s-5.054-13.388-12.114-14.78z" fill="#463f3f"/><path d="m436.075 211.038h-63.779c-8.291 0-15 6.709-15 15l.762 60c0 8.291 6.709 15 15 15h3.018c41.353 0 75-33.647 75-75-.001-8.291-6.71-15-15.001-15z" fill="#ffca80"/><path d="m139.854 211.038h-63.779c-8.291 0-15 6.709-15 15 0 41.353 33.647 75 75 75h3.018c8.291 0 15-6.709 15-15l.762-60c-.001-8.291-6.71-15-15.001-15z" fill="#ffe6b3"/><g><path d="m256.075 121.038c-74.399 0-135 60.599-135 135 0 68.399 55.8 195 135 195s135-126.601 135-195c0-74.402-60.601-135-135-135z" fill="#fff7cc"/></g><path d="m391.075 256.038c0 68.399-55.8 195-135 195v-330c74.399 0 135 60.598 135 135z" fill="#ffe6b3"/><g><path d="m296.574 356.537-30 30c-2.699 3.001-6.599 4.501-10.499 4.501s-7.8-1.5-10.499-4.501l-30-30c-6-5.7-6-15.3 0-21 5.7-5.999 15.298-5.999 20.999 0l19.501 19.2 19.501-19.2c5.7-5.999 15.298-5.999 20.999 0 5.999 5.7 5.999 15.3-.002 21z" fill="#766e6e"/></g><g><circle cx="211.075" cy="271.038" fill="#766e6e" r="15"/></g><g><circle cx="301.075" cy="271.038" fill="#463f3f" r="15"/></g><path d="m296.574 356.537-30 30c-2.699 3.001-6.599 4.501-10.499 4.501v-36.301l19.501-19.2c5.7-5.999 15.298-5.999 20.999 0 6 5.7 6 15.3-.001 21z" fill="#463f3f"/></g></svg>