<svg id="Capa_1" enable-background="new 0 0 512 512" height="512" viewBox="0 0 512 512" width="512" xmlns="http://www.w3.org/2000/svg"><path d="m512 256c0-24-11.4-46.201-30.3-60.3 9.3-21.301 8.101-46.5-3.9-67.2-11.999-20.7-33.999-35.2-57.4-37.901-2.7-23.399-16.2-44.4-36.9-56.399-20.7-12-45.901-13.2-67.2-3.9-14.101-18.9-36.3-30.3-60.3-30.3s-46.199 11.4-60.3 30.3c-21.299-9.3-46.5-8.101-67.2 3.9-20.7 11.999-34.2 33-36.899 56.399-23.401 2.701-45.402 17.201-57.401 37.901-12 20.7-13.2 45.899-3.9 67.2-18.9 14.099-30.3 36.3-30.3 60.3s11.4 46.199 30.3 60.3c-9.3 21.299-8.101 46.5 3.9 67.2 11.999 20.7 33.999 34.2 57.4 36.899 2.7 23.401 16.2 44.4 36.9 56.401s45.901 14.2 67.2 4.9c14.101 18.9 36.3 30.3 60.3 30.3s46.199-11.4 60.3-30.3c21.299 9.3 46.5 7.101 67.2-4.9s34.2-32.999 36.899-56.4c23.401-2.7 45.402-16.2 57.401-36.9 12.001-20.7 13.2-45.901 3.9-67.2 18.9-14.101 30.3-36.3 30.3-60.3z" fill="#f2f2f2"/><path d="m481.7 316.3c9.3 21.299 8.101 46.5-3.9 67.2-11.999 20.7-33.999 34.2-57.4 36.899-2.7 23.401-16.2 44.4-36.9 56.401s-45.901 14.2-67.2 4.9c-14.101 18.9-36.3 30.3-60.3 30.3v-512c24 0 46.199 11.4 60.3 30.3 21.299-9.3 46.5-8.101 67.2 3.9 20.7 11.999 34.2 32.999 36.899 56.398 23.401 2.702 45.402 17.202 57.401 37.902 12.001 20.7 13.2 45.899 3.9 67.2 18.9 14.099 30.3 36.3 30.3 60.3s-11.4 46.199-30.3 60.3z" fill="#e7e7f2"/><path d="m166 211h-90c-8.291 0-15 6.709-15 15 0 41.353 33.647 75 75 75h30c8.291 0 15-6.709 15-15v-60c0-8.291-6.709-15-15-15z" fill="#ffbd86"/><path d="m436 211h-90c-8.291 0-15 6.709-15 15v60c0 8.291 6.709 15 15 15h30c41.353 0 75-33.647 75-75 0-8.291-6.709-15-15-15z" fill="#f6a96c"/><path d="m361 223.9v92.1c0 57.9-47.1 105-105 105s-105-47.1-105-105v-92.1c4.799 1.199 9.901 2.1 15 2.1 17.999 0 33.9-8.101 45-20.7 11.1 12.599 27.001 20.7 45 20.7s33.9-8.101 45-20.7c11.1 12.599 27.001 20.7 45 20.7 5.099 0 10.201-.901 15-2.1z" fill="#fed2a4"/><path d="m361 223.9v92.1c0 57.9-47.1 105-105 105v-195c17.999 0 33.9-8.101 45-20.7 11.1 12.599 27.001 20.7 45 20.7 5.099 0 10.201-.901 15-2.1z" fill="#ffbd86"/><circle cx="226" cy="286" fill="#725d57" r="15"/><circle cx="286" cy="286" fill="#53433f" r="15"/><path d="m296.499 356.499-30 30c-2.699 3.001-6.599 4.501-10.499 4.501s-7.8-1.5-10.499-4.501l-30-30c-6-5.7-6-15.3 0-21 5.7-5.999 15.298-5.999 20.999 0l19.501 19.2 19.501-19.2c5.7-5.999 15.298-5.999 20.999 0 5.999 5.7 5.999 15.3-.002 21z" fill="#ffbd86"/><path d="m296.499 335.499c6 5.7 6 15.3 0 21l-30 30c-2.699 3.001-6.599 4.501-10.499 4.501v-36.301l19.501-19.2c5.7-5.999 15.298-5.999 20.998 0z" fill="#f6a96c"/><path d="m406 181c0 32.999-27.001 60-60 60-17.999 0-33.9-8.101-45-20.7-11.1 12.599-27.001 20.7-45 20.7s-33.9-8.101-45-20.7c-11.1 12.599-27.001 20.7-45 20.7-32.999 0-60-27.001-60-60 0-8.401 6.599-15 15-15s15 6.599 15 15c0 16.5 13.5 30 30 30s30-13.5 30-30c0-8.401 6.599-15 15-15s15 6.599 15 15c0 16.5 13.5 30 30 30s30-13.5 30-30c0-8.401 6.599-15 15-15s15 6.599 15 15c0 16.5 13.5 30 30 30s30-13.5 30-30c0-8.401 6.599-15 15-15s15 6.599 15 15z" fill="#e7e7f2"/><path d="m406 181c0 32.999-27.001 60-60 60-17.999 0-33.9-8.101-45-20.7-11.1 12.599-27.001 20.7-45 20.7v-30c16.5 0 30-13.5 30-30 0-8.401 6.599-15 15-15s15 6.599 15 15c0 16.5 13.5 30 30 30s30-13.5 30-30c0-8.401 6.599-15 15-15s15 6.599 15 15z" fill="#cecee6"/></svg>